<?xml version="1.0" standalone="no"?>
<!DOCTYPE svg PUBLIC "-//W3C//DTD SVG 20010904//EN"
 "http://www.w3.org/TR/2001/REC-SVG-20010904/DTD/svg10.dtd">
<svg version="1.0" xmlns="http://www.w3.org/2000/svg"
 width="260.000000pt" height="260.000000pt" viewBox="0 0 260.000000 260.000000"
 preserveAspectRatio="xMidYMid meet">
<metadata>
Created by potrace 1.11, written by Peter Selinger 2001-2013
</metadata>
<g transform="translate(0.000000,260.000000) scale(0.100000,-0.100000)"
fill="#000000" stroke="none">
<path d="M1074 2430 c-10 -4 -23 -5 -29 -2 -5 3 -7 2 -3 -3 5 -5 -1 -15 -12
-22 -11 -8 -18 -19 -15 -24 4 -5 1 -9 -5 -9 -6 0 -8 -4 -5 -10 3 -5 1 -10 -5
-10 -6 0 -8 -11 -6 -25 3 -13 0 -27 -5 -31 -5 -3 -7 -9 -4 -14 2 -4 6 -28 6
-53 1 -26 5 -44 9 -42 4 2 7 -2 7 -10 0 -8 -4 -12 -9 -9 -4 3 -8 0 -8 -5 0 -6
5 -11 11 -11 6 0 9 -9 6 -20 -3 -11 -1 -20 4 -20 5 0 8 -3 8 -7 -1 -5 -1 -10
1 -13 1 -3 3 -16 5 -30 8 -45 10 -55 18 -67 5 -7 5 -13 1 -13 -3 0 -1 -7 6
-15 10 -12 10 -15 0 -15 -10 0 -10 -3 0 -15 7 -8 10 -22 6 -30 -3 -8 -1 -15 3
-15 5 0 12 -7 15 -16 3 -8 2 -12 -4 -9 -6 3 -10 1 -10 -4 0 -6 5 -11 12 -11 6
0 8 -3 5 -7 -4 -3 -1 -13 6 -21 10 -13 9 -14 -1 -8 -12 7 -12 4 -2 -13 6 -12
12 -35 12 -51 1 -16 5 -27 10 -24 11 7 10 -7 -2 -26 -7 -11 -10 -11 -10 -2 0
8 -5 10 -12 6 -7 -4 -24 -9 -38 -11 -52 -7 -62 -10 -69 -22 -5 -7 -12 -13 -17
-13 -16 -1 -44 -25 -37 -31 3 -4 0 -7 -7 -7 -7 0 -10 -3 -7 -7 4 -3 1 -13 -6
-21 -10 -13 -9 -14 3 -7 12 7 13 6 3 -6 -9 -11 -9 -19 -2 -26 8 -8 7 -13 -2
-18 -8 -5 -10 -4 -5 4 4 6 0 14 -8 17 -9 3 -16 11 -16 18 0 14 -77 49 -91 41
-5 -4 -9 -1 -9 5 0 8 -6 7 -21 -1 -12 -6 -19 -7 -16 -2 3 5 -3 9 -13 9 -10 0
-17 -3 -14 -7 2 -3 -12 -9 -30 -12 -34 -5 -76 -37 -76 -57 0 -5 -6 -10 -12
-10 -9 0 -8 -4 2 -10 8 -5 10 -10 5 -10 -12 0 -13 -189 -1 -208 4 -7 2 -12 -6
-12 -9 0 -9 -3 2 -10 8 -5 11 -10 5 -10 -11 0 -14 -334 -3 -345 3 -4 2 -20 -2
-36 -5 -16 -5 -29 -1 -29 4 0 7 -18 6 -40 -1 -22 1 -40 4 -40 4 0 6 -12 6 -27
1 -16 4 -39 9 -52 6 -18 5 -22 -5 -15 -9 5 -7 -2 4 -19 10 -15 15 -32 12 -37
-3 -6 -2 -10 4 -10 6 0 8 -7 5 -15 -4 -8 -1 -15 5 -15 6 0 10 -3 10 -8 -4 -24
2 -52 11 -47 9 5 15 -15 11 -38 0 -4 3 -7 9 -7 5 0 10 -7 10 -15 0 -8 5 -15
10 -15 6 0 10 -6 10 -14 0 -8 7 -17 16 -20 9 -4 14 -9 10 -13 -3 -3 13 -24 37
-47 23 -22 41 -43 40 -46 -1 -3 7 -12 19 -19 16 -10 19 -10 13 1 -5 7 6 -1 24
-19 21 -20 38 -30 48 -26 12 5 14 3 8 -7 -6 -10 -4 -12 8 -7 10 4 17 2 17 -4
0 -6 7 -8 15 -5 9 3 18 0 21 -8 3 -7 15 -13 27 -12 12 1 31 -4 43 -11 11 -7
24 -10 27 -7 4 4 13 1 22 -6 8 -7 22 -10 30 -6 8 3 15 0 15 -6 0 -7 4 -7 14 1
11 10 16 8 24 -5 9 -15 13 -16 26 -5 10 8 16 9 16 3 0 -6 12 -9 28 -8 15 2 35
-1 46 -6 12 -7 16 -7 12 0 -3 6 11 10 37 10 23 1 56 4 72 7 17 4 38 6 48 6 9
0 17 4 17 8 0 4 6 8 13 8 20 1 42 8 47 15 3 4 16 9 28 11 13 2 32 11 42 20 11
9 20 14 20 11 0 -4 6 -1 13 5 8 6 18 7 22 3 5 -4 5 -2 1 5 -4 8 2 15 18 19 13
3 35 18 49 32 14 15 42 41 62 57 20 17 41 40 46 53 5 13 13 21 18 18 5 -4 7 3
4 14 -3 11 0 20 6 20 6 0 11 9 11 20 0 11 5 20 11 20 5 0 7 5 4 10 -3 6 -1 10
5 10 6 0 9 4 5 9 -3 5 0 13 6 16 5 4 8 13 5 21 -3 8 -1 14 5 14 6 0 8 7 5 16
-3 8 -2 12 4 9 6 -4 10 7 10 24 0 17 5 31 10 31 6 0 9 3 8 8 -1 4 4 31 11 60
7 29 10 59 7 68 -3 8 -2 13 3 10 5 -3 8 10 6 29 -2 21 1 35 8 35 6 0 2 7 -9
16 -10 8 -14 13 -8 10 8 -4 11 3 10 19 0 14 -5 25 -9 25 -5 0 -5 9 -2 20 3 11
2 20 -3 20 -5 0 -9 6 -9 14 0 22 -42 106 -53 106 -6 0 -10 7 -10 17 0 9 -3 14
-6 10 -3 -3 -27 15 -52 40 -46 46 -60 81 -38 95 8 5 7 8 -2 8 -8 0 -10 5 -6
12 5 7 9 19 10 28 6 39 15 64 26 72 10 6 10 8 0 8 -8 0 -10 5 -5 13 4 6 8 17
9 22 1 6 5 26 9 45 4 19 7 43 7 53 0 9 3 15 7 13 4 -3 6 8 5 25 -1 16 3 29 9
29 7 0 5 5 -3 10 -11 7 -12 12 -4 18 15 9 21 53 11 70 -5 7 -2 14 7 18 9 3 12
12 9 21 -5 12 -3 14 8 8 12 -8 12 -6 0 8 -7 9 -9 17 -4 17 5 0 9 10 8 23 -1
12 3 25 9 29 7 5 6 8 -3 8 -11 0 -11 3 -1 15 6 8 9 19 5 25 -3 5 0 10 7 10 9
0 9 3 -2 10 -12 7 -12 10 -1 10 7 0 11 6 8 14 -3 8 -3 17 1 20 6 7 11 25 17
66 1 14 4 25 5 25 1 0 7 32 13 78 2 13 7 28 11 35 4 7 3 12 -3 12 -6 0 -6 11
-1 30 5 17 5 30 0 30 -5 0 -7 9 -5 20 4 22 -20 87 -39 104 -23 21 -79 59 -73
49 4 -7 -14 -10 -48 -9 -30 0 -56 -3 -58 -7 -1 -4 -9 -9 -17 -10 -16 -3 -59
-41 -61 -54 -1 -5 -6 -19 -12 -33 -6 -14 -11 -28 -12 -32 -2 -5 -4 -10 -5 -13
-1 -3 -4 -14 -5 -25 -1 -11 -4 -21 -5 -22 -2 -3 -8 -36 -12 -65 -1 -7 -6 -13
-12 -13 -6 0 -4 -5 4 -10 12 -7 12 -10 1 -10 -7 0 -11 -6 -8 -15 4 -8 2 -17
-2 -19 -5 -3 -7 -17 -6 -31 2 -14 0 -25 -4 -25 -4 0 -7 -8 -8 -17 -2 -18 -6
-40 -19 -98 -4 -16 -6 -38 -6 -47 0 -10 -3 -18 -7 -18 -5 0 -7 -11 -6 -25 2
-14 -1 -25 -7 -25 -6 0 -8 -9 -5 -19 2 -10 1 -25 -4 -32 -5 -8 -3 -17 4 -21 9
-6 9 -8 0 -8 -7 0 -10 -7 -7 -15 4 -8 1 -15 -6 -15 -6 0 -9 -4 -5 -9 3 -5 1
-12 -5 -16 -7 -4 -7 -12 0 -25 7 -13 7 -21 0 -25 -6 -4 -8 -10 -5 -15 6 -10
-19 -20 -31 -12 -11 8 -14 23 -16 68 -1 19 -4 34 -8 34 -3 0 -7 17 -8 37 -2
20 -8 44 -15 52 -9 12 -9 13 0 8 9 -6 8 3 -2 28 -10 22 -11 35 -5 35 6 0 8 5
5 10 -4 6 -11 7 -17 4 -6 -4 -6 0 1 13 6 11 7 23 4 27 -7 7 -11 24 -15 59 -1
9 -5 17 -8 17 -3 0 -6 12 -7 28 -3 29 -10 77 -13 77 -2 0 -11 35 -14 55 -1 9
-5 21 -10 28 -4 6 -4 12 1 12 4 0 1 5 -7 10 -11 7 -11 10 -2 10 10 0 10 5 2
21 -7 11 -9 23 -7 26 3 2 -1 16 -8 30 -7 14 -11 31 -9 38 3 6 -2 18 -10 25 -9
7 -13 16 -10 21 3 5 0 9 -5 9 -6 0 -10 3 -9 8 2 4 -4 16 -12 27 -19 26 -66 65
-55 46 6 -11 4 -13 -11 -6 -25 10 -115 13 -140 5z m436 -887 c0 -7 -6 -13 -13
-13 -8 0 -14 6 -14 13 0 8 6 14 14 14 7 0 13 -6 13 -14z"/>
</g>
</svg>
