<?xml version="1.0" encoding="UTF-8"?>
<svg xmlns="http://www.w3.org/2000/svg" xmlns:xlink="http://www.w3.org/1999/xlink" width="24pt" height="24pt" viewBox="0 0 24 24" version="1.1">
<g id="surface23385942">
<path style=" stroke:none;fill-rule:nonzero;fill:rgb(0%,0%,0%);fill-opacity:1;" d="M 21.101562 23.699219 L 2.898438 23.699219 C 1.46875 23.699219 0.300781 22.53125 0.300781 21.101562 L 0.300781 2.898438 C 0.300781 1.46875 1.46875 0.300781 2.898438 0.300781 L 12 0.300781 L 12 2.898438 L 2.898438 2.898438 L 2.898438 21.101562 L 21.101562 21.101562 L 21.101562 12 L 23.699219 12 L 23.699219 21.101562 C 23.699219 22.53125 22.53125 23.699219 21.101562 23.699219 Z M 21.101562 23.699219 "/>
<path style=" stroke:none;fill-rule:nonzero;fill:rgb(0%,0%,0%);fill-opacity:1;" d="M 23.699219 9.398438 L 21.101562 9.398438 L 21.101562 2.898438 L 14.601562 2.898438 L 14.601562 0.300781 L 23.699219 0.300781 Z M 23.699219 9.398438 "/>
<path style=" stroke:none;fill-rule:nonzero;fill:rgb(0%,0%,0%);fill-opacity:1;" d="M 7.160156 15 L 21.5 0.660156 L 23.339844 2.5 L 9 16.839844 Z M 7.160156 15 "/>
</g>
</svg>
